<?xml version="1.0" encoding="utf-8"?>
<svg viewBox="80.223 9.078 427.414 449.896" xmlns="http://www.w3.org/2000/svg">
  <g fill="#ff3851" transform="matrix(1, 0, 0, 1, -82.186783, -142.446426)">
    <path d="m588.16 370.32c-3.7852-8.5273-13.73-12.789-22.73-8.5273-11.84 5.2109-28.414 12.312-39.781 17.523v-0.47266c-6.6289-17.523-16.574-43.57-41.203-53.516-6.1562-2.3672-16.102-6.6289-16.102-6.6289l-5.2109-2.3672s-3.3164-1.4219-5.2109-2.3672c-35.52-15.156-97.559 6.6289-108.45 17.996-6.1562 6.1562-27.941 37.414-36.938 50.672-5.2109 8.0508-3.3164 18.469 4.2617 24.152 8.0508 5.6836 18.469 3.3164 24.152-4.2617 12.785-18.469 28.414-40.727 32.676-45.938 3.7891-2.3672 12.785-5.6836 23.68-8.5234-16.102 24.625-29.836 59.199-31.258 76.719-1.8945 8.9961-2.8398 18.941-3.7891 29.836-1.4219 18.469-3.3164 39.309-10.891 52.094-17.523 29.363-45.938 57.777-46.41 58.25-8.0508 8.0508-8.0508 20.836 0 28.414 8.0508 8.0508 20.836 8.0508 28.414 0 1.4219-1.4219 32.676-32.203 52.566-66.301 11.84-19.891 14.207-45.938 16.102-67.25 14.207 9.4727 36.465 24.625 44.043 32.676-2.3672 13.734-13.734 51.148-24.152 82.402-3.3164 10.418 2.3672 22.258 12.785 25.574 1.8945 0.47266 4.2617 0.94531 6.1562 0.94531 8.5234 0 16.574-5.2109 19.418-13.734 9.9453-30.309 26.992-83.824 26.52-99.453-0.47266-15.156-14.207-28.414-44.043-49.727 9.4727-22.73 23.68-53.988 38.359-71.512 4.7344 7.1055 8.0508 16.574 11.367 24.152 3.7891 9.9453 10.418 27.469 24.625 27.469 2.3672 0 4.7344-0.47266 7.5781-1.4219 9.9453-3.3164 49.727-21.312 54.461-23.207 9.0039-4.7266 13.27-14.672 9.0039-23.668z"/>
    <path d="m502.23 231.71c20.434 8.7539 29.906 32.414 21.152 52.852-8.7539 20.434-32.414 29.906-52.852 21.152-20.434-8.7539-29.906-32.414-21.152-52.852 8.7539-20.434 32.414-29.906 52.852-21.152"/>
    <path d="m218.3 326.28h92.82c5.2109 0 9.4727-4.2617 9.4727-9.4727 0-5.2109-4.2617-9.4727-9.4727-9.4727h-92.82c-5.2109 0-9.4727 4.2617-9.4727 9.4727 0 5.207 4.2617 9.4727 9.4727 9.4727z"/>
    <path d="m287.91 344.75h-92.82c-5.2109 0-9.4727 4.2617-9.4727 9.4727s4.2617 9.4727 9.4727 9.4727h92.82c5.2109 0 9.4727-4.2617 9.4727-9.4727s-4.2617-9.4727-9.4727-9.4727z"/>
    <path d="m264.23 382.63h-92.348c-5.2109 0-9.4727 4.2617-9.4727 9.4727 0 5.2109 4.2617 9.4727 9.4727 9.4727h92.82c5.2109 0 9.4727-4.2617 9.4727-9.4727 0-5.2109-4.2617-9.4727-9.9453-9.4727z"/>
    <path d="m355.64 259.5c29.836 0 53.988-24.152 53.988-53.988 0-29.836-24.152-53.988-53.988-53.988-29.836 0-53.988 24.152-53.988 53.988-0.47266 29.836 24.152 53.988 53.988 53.988zm0-92.348c20.836 0 37.887 17.051 37.887 37.887 0 20.836-17.051 37.887-37.887 37.887-20.836 0-37.887-17.051-37.887-37.887 0-20.84 17.051-37.887 37.887-37.887z"/>
    <path d="m355.64 211.2h16.574c3.3164 0 6.1562-2.8398 6.1562-6.1562 0-3.3164-2.8398-6.1562-6.1562-6.1562h-10.418v-17.051c0-3.3164-2.8398-6.1562-6.1562-6.1562-3.3164 0-6.1562 2.8398-6.1562 6.1562v23.68c0 2.8438 2.8438 5.6836 6.1562 5.6836z"/>
  </g>
</svg>